<svg xmlns="http://www.w3.org/2000/svg" xmlns:xlink="http://www.w3.org/1999/xlink" width="175.196" height="62.136" viewBox="0 0 175.196 62.136">
  <defs>
    <linearGradient id="linear-gradient" y1="0.5" x2="1" y2="0.5" gradientUnits="objectBoundingBox">
      <stop offset="0" stop-color="#ffb600"/>
      <stop offset="1" stop-color="#ff8f00"/>
    </linearGradient>
    <linearGradient id="linear-gradient-3" y1="0.5" x2="1" y2="0.5" gradientUnits="objectBoundingBox">
      <stop offset="0" stop-color="#ff8f00"/>
      <stop offset="1" stop-color="#ffb600"/>
    </linearGradient>
    <linearGradient id="linear-gradient-4" x1="-1.539" y1="-7.174" x2="-0.493" y2="-7.174" xlink:href="#linear-gradient-3"/>
  </defs>
  <g id="Group_57586" data-name="Group 57586" transform="translate(-225 -46)">
    <g id="Landscape_Inji_Logo_Scalable" transform="translate(140.51 -22.494)">
      <g id="Group_57553" data-name="Group 57553" transform="translate(84.49 68.494)">
        <path id="Path_155574" data-name="Path 155574" d="M320.5,248.41H307.23a4.8,4.8,0,0,0-4.8,4.8v1.5a4.8,4.8,0,0,0,4.8,4.8H320.5a2.5,2.5,0,0,0,2.506-2.5v-6.1A2.508,2.508,0,0,0,320.5,248.41Zm-12.508,8.783a3.236,3.236,0,1,1,3.236-3.236A3.236,3.236,0,0,1,307.987,257.193Z" transform="translate(-265.016 -217.523)" fill="url(#linear-gradient)"/>
        <path id="Path_155575" data-name="Path 155575" d="M127.18,154.234h12.136v-3.619a13.652,13.652,0,0,0-13.655-13.655H98.145A13.652,13.652,0,0,0,84.49,150.615v3.334h6.6l2.855-7.361h9.579a2.96,2.96,0,1,1-.055,2.668h-7.7l-2.855,7.361H84.49V161.2H97.163a2.958,2.958,0,1,1,0,2.668H84.49v4.5h8.426l2.855,7.361H108.8a2.956,2.956,0,1,1,.055,2.668H93.946l-2.855-7.361h-6.6v2.646a13.652,13.652,0,0,0,13.655,13.655h27.516a13.652,13.652,0,0,0,13.655-13.655v-4.64H127.18a7.407,7.407,0,0,1,0-14.814Z" transform="translate(-84.49 -125.206)" fill="url(#linear-gradient)"/>
        <path id="Path_155576" data-name="Path 155576" d="M217.49,95.572h23.662s-.319-4.9-4.05-5.435S217.49,95.572,217.49,95.572Z" transform="translate(-194.657 -86.393)" fill="url(#linear-gradient-3)"/>
        <path id="Path_155577" data-name="Path 155577" d="M174.37,76.892l17.178-5.276s-2.115-3.528-4.942-3.083S174.37,76.892,174.37,76.892Z" transform="translate(-158.94 -68.494)" fill="url(#linear-gradient-4)"/>
      </g>
      <path id="Path_10" d="M494.963,200.864H488.73v-25.7h6.233Zm8.69,0h-6.232V175.173h9.248q8.221,0,12.266,3.68t4.045,11.569v10.444H516.75V189.561q0-4.512-2.752-6.53a11.983,11.983,0,0,0-7.261-2.022h-3.083v19.855Zm33.84-11.934v-7.923H525.16v-5.834h18.568v14.619a10.425,10.425,0,0,1-3.117,7.89,10.169,10.169,0,0,1-4.77,2.585,30.141,30.141,0,0,1-6.5.6H524.96v-5.835H530.2q7.294,0,7.3-6.1m14.592,11.934h-6.237V175.173h6.232Z" transform="translate(-336.254 -91.716)"/>
    </g>
    <g id="Group_57585" data-name="Group 57585" transform="translate(-62.5 37.341)">
      <path id="Path_155579" data-name="Path 155579" d="M6.423-7.9,0-22.165H3.471L8.757-10.4h.259L14.3-22.165h3.471L11.35-7.9Zm12.746,0V-22.165H34.808v2.593H22.361v3.152h11.29v2.593H22.361V-10.5H34.808V-7.9ZM37-7.9V-22.165H48.951a4.927,4.927,0,0,1,3.441,1.117,4.363,4.363,0,0,1,1.227,3.391,4.656,4.656,0,0,1-.9,3.032,4.023,4.023,0,0,1-2.553,1.376L53.459-7.9h-3.63l-3.052-5.246H40.194V-7.9ZM48.572-19.572H40.194v3.81l8.378.02a1.9,1.9,0,0,0,1.346-.439,1.955,1.955,0,0,0,.469-1.476,1.95,1.95,0,0,0-.469-1.486A1.926,1.926,0,0,0,48.572-19.572ZM56.012-7.9V-22.165H59.2V-7.9ZM62-7.9V-22.165h15.24v2.593H65.188v3.95H75.68v2.593H65.188V-7.9Zm23.6,0v-5.087l-6.529-8.834,2.75.1,5.336,6.374,6.374-6.811H95.78l-6.974,9.156V-7.9Z" transform="translate(356 76.506)"/>
      <path id="Path_155578" data-name="Path 155578" d="M477.294-2444.635h3.955l5.2,6.459,19.488-20.008-19.488,24.7Z" transform="translate(-43.246 2499)" fill="url(#linear-gradient)"/>
    </g>
  </g>
</svg>
