<svg class="svg-icon" style="width: 1em;height: 1em;vertical-align: middle;fill: currentColor;overflow: hidden;" viewBox="0 0 1024 1024" version="1.1" xmlns="http://www.w3.org/2000/svg"><path d="M783.36 128h92.16c11.264 0 20.48 9.216 20.48 20.48v92.16c0 11.3152 9.1648 20.48 20.48 20.48s20.48-9.1648 20.48-20.48V148.48c0-33.792-27.648-61.44-61.44-61.44h-92.16c-11.3152 0-20.48 9.1648-20.48 20.48s9.1648 20.48 20.48 20.48zM128 240.64V148.48c0-11.264 9.216-20.48 20.48-20.48h92.16c11.3152 0 20.48-9.1648 20.48-20.48s-9.1648-20.48-20.48-20.48H148.48c-33.792 0-61.44 27.648-61.44 61.44v92.16c0 11.3152 9.1648 20.48 20.48 20.48s20.48-9.1648 20.48-20.48zM896 783.36v92.16c0 11.264-9.216 20.48-20.48 20.48h-92.16c-11.3152 0-20.48 9.1648-20.48 20.48s9.1648 20.48 20.48 20.48h92.16c33.792 0 61.44-27.648 61.44-61.44v-92.16c0-11.3152-9.1648-20.48-20.48-20.48s-20.48 9.1648-20.48 20.48zM240.64 896H148.48c-11.264 0-20.48-9.216-20.48-20.48v-92.16c0-11.3152-9.1648-20.48-20.48-20.48s-20.48 9.1648-20.48 20.48v92.16c0 33.792 27.648 61.44 61.44 61.44h92.16c11.3152 0 20.48-9.1648 20.48-20.48s-9.1648-20.48-20.48-20.48zM916.48 532.48H107.52c-11.264 0-20.48-9.216-20.48-20.48s9.216-20.48 20.48-20.48h808.96c11.264 0 20.48 9.216 20.48 20.48s-9.216 20.48-20.48 20.48z" fill="#666666" /></svg>