<svg xmlns="http://www.w3.org/2000/svg" width="350.39" height="350.39" viewBox="0 0 350.39 350.39">
  <g id="Group_57593" data-name="Group 57593" transform="translate(-905.305 -183.805)">
    <path id="Path_155580" data-name="Path 155580" d="M346.455,2.907a10.185,10.185,0,0,1,10.174,10.174V32.454h2.907V13.081A13.1,13.1,0,0,0,346.455,0H327.02V2.907Z" transform="translate(895.659 184.305)" fill="#ff7f00" stroke="#ff7f00" stroke-width="1"/>
    <path id="Path_155581" data-name="Path 155581" d="M2.907,13.081A10.185,10.185,0,0,1,13.081,2.907H32.468V0H13.081A13.1,13.1,0,0,0,0,13.081V32.454H2.907Z" transform="translate(905.805 184.305)" fill="#ff7f00" stroke="#ff7f00" stroke-width="1"/>
    <path id="Path_155582" data-name="Path 155582" d="M356.629,346.454a10.185,10.185,0,0,1-10.174,10.174H327.02v2.907h19.435a13.1,13.1,0,0,0,13.081-13.081V327.005h-2.907Z" transform="translate(895.659 174.159)" fill="#ff7f00" stroke="#ff7f00" stroke-width="1"/>
    <path id="Path_155583" data-name="Path 155583" d="M13.081,356.628A10.185,10.185,0,0,1,2.907,346.454V327.005H0v19.449a13.1,13.1,0,0,0,13.081,13.081H32.468v-2.907Z" transform="translate(905.805 174.159)" fill="#ff7f00" stroke="#ff7f00" stroke-width="1"/>
  </g>
</svg>
