<svg xmlns="http://www.w3.org/2000/svg" xmlns:xlink="http://www.w3.org/1999/xlink" width="112" height="112" viewBox="0 0 112 112">
  <defs>
    <filter id="Rectangle_6853" x="0" y="0" width="112" height="112" filterUnits="userSpaceOnUse">
      <feOffset dy="3" input="SourceAlpha"/>
      <feGaussianBlur stdDeviation="7.5" result="blur"/>
      <feFlood flood-opacity="0.059"/>
      <feComposite operator="in" in2="blur"/>
      <feComposite in="SourceGraphic"/>
    </filter>
  </defs>
  <g id="Group_57136" data-name="Group 57136" transform="translate(-74.49 -131.723)">
    <g id="success_message_icon" transform="translate(97.217 151)">
      <g transform="matrix(1, 0, 0, 1, -22.73, -19.28)" filter="url(#Rectangle_6853)">
        <rect id="Rectangle_6853-2" data-name="Rectangle 6853" width="67" height="67" rx="33.5" transform="translate(22.5 19.5)" fill="#fff"/>
      </g>
      <rect id="Rectangle_6846" data-name="Rectangle 6846" width="60" height="59" rx="29.5" transform="translate(3.773 4.223)" fill="rgba(75,157,32,0.08)"/>
      <g id="success_icon" transform="translate(23.263 20.649)">
        <g id="Group_57086" data-name="Group 57086">
          <path id="gpp_maybe_FILL0_wght400_GRAD0_opsz48" d="M18.321,29.82A12.666,12.666,0,0,1,10.9,24.565,15.364,15.364,0,0,1,8,15.527V7.83L18.321,3.95,28.642,7.83v7.7a15.364,15.364,0,0,1-2.9,9.038A12.666,12.666,0,0,1,18.321,29.82Z" transform="translate(-8 -3.95)" fill="#4b9d20"/>
          <path id="check_circle_FILL0_wght400_GRAD0_opsz48" d="M9.734,14.072,15.39,8.416l-.919-.9L9.734,12.253l-2.4-2.4-.9.9ZM10.913,10.434Z" transform="translate(-0.545 1.936)" fill="#fff"/>
        </g>
      </g>
    </g>
  </g>
</svg>
